<svg width="144" height="61" viewBox="0 0 144 61" fill="none" xmlns="http://www.w3.org/2000/svg">
<path d="M0.636364 47V0.454544H6.27273V42H27.9091V47H0.636364ZM50.0909 47.7273C46.9394 47.7273 44.1742 46.9773 41.7955 45.4773C39.4318 43.9773 37.5833 41.8788 36.25 39.1818C34.9318 36.4848 34.2727 33.3333 34.2727 29.7273C34.2727 26.0909 34.9318 22.9167 36.25 20.2045C37.5833 17.4924 39.4318 15.3864 41.7955 13.8864C44.1742 12.3864 46.9394 11.6364 50.0909 11.6364C53.2424 11.6364 56 12.3864 58.3636 13.8864C60.7424 15.3864 62.5909 17.4924 63.9091 20.2045C65.2424 22.9167 65.9091 26.0909 65.9091 29.7273C65.9091 33.3333 65.2424 36.4848 63.9091 39.1818C62.5909 41.8788 60.7424 43.9773 58.3636 45.4773C56 46.9773 53.2424 47.7273 50.0909 47.7273ZM50.0909 42.9091C52.4848 42.9091 54.4545 42.2955 56 41.0682C57.5455 39.8409 58.6894 38.2273 59.4318 36.2273C60.1742 34.2273 60.5455 32.0606 60.5455 29.7273C60.5455 27.3939 60.1742 25.2197 59.4318 23.2045C58.6894 21.1894 57.5455 19.5606 56 18.3182C54.4545 17.0758 52.4848 16.4545 50.0909 16.4545C47.697 16.4545 45.7273 17.0758 44.1818 18.3182C42.6364 19.5606 41.4924 21.1894 40.75 23.2045C40.0076 25.2197 39.6364 27.3939 39.6364 29.7273C39.6364 32.0606 40.0076 34.2273 40.75 36.2273C41.4924 38.2273 42.6364 39.8409 44.1818 41.0682C45.7273 42.2955 47.697 42.9091 50.0909 42.9091ZM88.1875 60.8182C85.5966 60.8182 83.3693 60.4848 81.5057 59.8182C79.642 59.1667 78.089 58.303 76.8466 57.2273C75.6193 56.1667 74.642 55.0303 73.9148 53.8182L78.1875 50.8182C78.6723 51.4545 79.286 52.1818 80.0284 53C80.7708 53.8333 81.786 54.553 83.0739 55.1591C84.3769 55.7803 86.0814 56.0909 88.1875 56.0909C91.0057 56.0909 93.3314 55.4091 95.1648 54.0455C96.9981 52.6818 97.9148 50.5455 97.9148 47.6364V40.5455H97.4602C97.0663 41.1818 96.5057 41.9697 95.7784 42.9091C95.0663 43.8333 94.036 44.6591 92.6875 45.3864C91.3542 46.0985 89.5511 46.4545 87.2784 46.4545C84.4602 46.4545 81.9299 45.7879 79.6875 44.4545C77.4602 43.1212 75.6951 41.1818 74.392 38.6364C73.1042 36.0909 72.4602 33 72.4602 29.3636C72.4602 25.7879 73.089 22.6742 74.3466 20.0227C75.6042 17.3561 77.3542 15.2955 79.5966 13.8409C81.839 12.3712 84.4299 11.6364 87.3693 11.6364C89.642 11.6364 91.4451 12.0152 92.7784 12.7727C94.1269 13.5152 95.1572 14.3636 95.8693 15.3182C96.5966 16.2576 97.1572 17.0303 97.5511 17.6364H98.0966V12.0909H103.278V48C103.278 51 102.597 53.4394 101.233 55.3182C99.8845 57.2121 98.0663 58.5985 95.7784 59.4773C93.5057 60.3712 90.9754 60.8182 88.1875 60.8182ZM88.0057 41.6364C90.1572 41.6364 91.9754 41.1439 93.4602 40.1591C94.9451 39.1742 96.0739 37.7576 96.8466 35.9091C97.6193 34.0606 98.0057 31.8485 98.0057 29.2727C98.0057 26.7576 97.6269 24.5379 96.8693 22.6136C96.1117 20.6894 94.9905 19.1818 93.5057 18.0909C92.0208 17 90.1875 16.4545 88.0057 16.4545C85.733 16.4545 83.839 17.0303 82.3239 18.1818C80.8239 19.3333 79.6951 20.8788 78.9375 22.8182C78.1951 24.7576 77.8239 26.9091 77.8239 29.2727C77.8239 31.697 78.2027 33.8409 78.9602 35.7045C79.733 37.553 80.8693 39.0076 82.3693 40.0682C83.8845 41.1136 85.7633 41.6364 88.0057 41.6364ZM127.278 47.7273C124.127 47.7273 121.362 46.9773 118.983 45.4773C116.619 43.9773 114.771 41.8788 113.438 39.1818C112.119 36.4848 111.46 33.3333 111.46 29.7273C111.46 26.0909 112.119 22.9167 113.438 20.2045C114.771 17.4924 116.619 15.3864 118.983 13.8864C121.362 12.3864 124.127 11.6364 127.278 11.6364C130.43 11.6364 133.188 12.3864 135.551 13.8864C137.93 15.3864 139.778 17.4924 141.097 20.2045C142.43 22.9167 143.097 26.0909 143.097 29.7273C143.097 33.3333 142.43 36.4848 141.097 39.1818C139.778 41.8788 137.93 43.9773 135.551 45.4773C133.188 46.9773 130.43 47.7273 127.278 47.7273ZM127.278 42.9091C129.672 42.9091 131.642 42.2955 133.188 41.0682C134.733 39.8409 135.877 38.2273 136.619 36.2273C137.362 34.2273 137.733 32.0606 137.733 29.7273C137.733 27.3939 137.362 25.2197 136.619 23.2045C135.877 21.1894 134.733 19.5606 133.188 18.3182C131.642 17.0758 129.672 16.4545 127.278 16.4545C124.884 16.4545 122.915 17.0758 121.369 18.3182C119.824 19.5606 118.68 21.1894 117.938 23.2045C117.195 25.2197 116.824 27.3939 116.824 29.7273C116.824 32.0606 117.195 34.2273 117.938 36.2273C118.68 38.2273 119.824 39.8409 121.369 41.0682C122.915 42.2955 124.884 42.9091 127.278 42.9091Z" fill="black"/>
</svg>
